<svg width="144" height="87" viewBox="0 0 144 87" fill="none" xmlns="http://www.w3.org/2000/svg">
<path d="M49.3537 2.21265C39.2373 0.910537 31.0424 5.81002 23.6392 10.8602C16.1197 15.9897 9.99233 22.3323 5.22281 29.2574C2.70901 32.9073 1.03916 37.1013 1.61329 41.3385C2.20483 45.704 7.28697 46.2994 11.8622 46.5524C20.5025 47.0303 29.7276 46.6129 38.1827 45.0688C42.1035 44.3527 48.2257 43.1353 50.9872 40.4695C51.5515 39.9248 51.0368 39.425 50.3022 39.3038C48.2721 38.9687 45.6791 39.8429 43.9526 40.5543C41.8743 41.4106 35.8781 43.7182 35.3372 45.8318C35.2734 46.0813 35.9164 46.083 36.233 46.0861C38.6666 46.1103 41.1814 45.8549 43.5838 45.6198C50.474 44.9457 57.4332 44.0465 64.1606 42.6526C64.7214 42.5363 69.0728 40.8856 67.5857 42.5042C66.3752 43.8216 66.5604 44.5633 68.8504 44.772C73.0331 45.1534 77.1767 44.4365 81.2597 43.8183C81.3811 43.7999 86.1434 43.1689 85.6069 43.4156C81.8009 45.1652 94.3054 42.1725 98.3588 40.8298C100.424 40.1455 100.908 40.1827 102.917 40.3847C103.928 40.4864 104.345 40.4489 105.314 40.0668C105.583 39.9607 107.439 38.9699 107.633 39.2826C107.872 39.6671 107.508 40.1891 107.791 40.5755C108.147 41.0628 111.182 40.745 111.532 40.745C122.788 40.745 133.652 37.0218 139.934 29.1514C140.755 28.123 143.726 24.3166 141.936 22.9837C140.696 22.0595 137.36 23.827 136.562 24.2554C120.278 32.9882 108.041 46.5074 96.3037 58.7819C89.7269 65.6599 82.4863 71.9323 75.0155 78.1752C72.7231 80.0908 68.7301 84.0734 66.4264 85" stroke="#2C3B8B" stroke-width="3" stroke-linecap="round"/>
</svg>
